<svg version="1.1" id="Uploaded to svgrepo.com" xmlns="http://www.w3.org/2000/svg" xmlns:xlink="http://www.w3.org/1999/xlink" 
	 width="800px" height="800px" viewBox="0 0 32 32" xml:space="preserve">
	<g>
	<rect x="21" y="3" fill="#E1E5E5" width="7" height="26"/>
	<path fill="#C4CCCC" d="M28,9.177l-4.586-4.592C23.052,4.224,22.552,4,22,4v4l1,1v4l1,0.621v4l1,1v4.035l1,0.965v4.035
		L27.344,29H28V9.177z"/>
	<rect x="4" y="3" fill="#FDFFFF" width="17" height="26"/>
	<path fill="#FDFFFF" d="M22,4v4c1.105,0,2-0.895,2-2C24,4.895,23.105,4,22,4z"/>
	<path fill="#FDFFFF" d="M23,9v4c1.105,0,2-0.895,2-2C25,9.895,24.105,9,23,9z"/>
	<path fill="#FDFFFF" d="M24,13.621v4c1.105,0,2-0.895,2-2C26,14.516,25.105,13.621,24,13.621z"/>
	<path fill="#FDFFFF" d="M25,18.621v4c1.105,0,2-0.895,2-2C27,19.516,26.105,18.621,25,18.621z"/>
	<path fill="#FDFFFF" d="M26,23.621v4c1.105,0,2-0.895,2-2C28,24.516,27.105,23.621,26,23.621z"/>
	<circle fill="#C4CCCC" cx="12" cy="12" r="2"/>
	<path fill="#C4CCCC" d="M15,21H9v-4c0-1.105,0.895-2,2-2h2c1.105,0,2,0.895,2,2V21z"/>
	</g>
</svg>